<svg width="25" height="25" viewBox="0 0 25 25" fill="none" xmlns="http://www.w3.org/2000/svg">
<path d="M7.45801 19.75C6.12884 19.75 5.05342 20.8375 5.05342 22.1666C5.05342 23.4958 6.12884 24.5833 7.45801 24.5833C8.78717 24.5833 9.87467 23.4958 9.87467 22.1666C9.87467 20.8375 8.78717 19.75 7.45801 19.75ZM0.208008 0.416626V2.83329H2.62467L6.97467 12.0045L5.34342 14.965C5.15009 15.3033 5.04134 15.702 5.04134 16.125C5.04134 17.4541 6.12884 18.5416 7.45801 18.5416H21.958V16.125H7.96551C7.79634 16.125 7.66342 15.992 7.66342 15.8229L7.69967 15.6779L8.78717 13.7083H17.7893C18.6955 13.7083 19.493 13.2129 19.9038 12.4637L24.2297 4.62163C24.3294 4.43722 24.3795 4.2301 24.3752 4.02052C24.371 3.81093 24.3124 3.60603 24.2053 3.42585C24.0981 3.24566 23.9461 3.09634 23.764 2.99248C23.5819 2.88863 23.376 2.83378 23.1663 2.83329H5.29509L4.15926 0.416626H0.208008ZM19.5413 19.75C18.2122 19.75 17.1368 20.8375 17.1368 22.1666C17.1368 23.4958 18.2122 24.5833 19.5413 24.5833C20.8705 24.5833 21.958 23.4958 21.958 22.1666C21.958 20.8375 20.8705 19.75 19.5413 19.75Z" fill="white"/>
</svg>
