<svg width="54" height="48" viewBox="0 0 54 48" fill="none" xmlns="http://www.w3.org/2000/svg">
<path d="M37.7438 7.80002L46.2 16.2563C46.5562 16.6125 46.5562 17.1938 46.2 17.55L25.725 38.025L17.025 38.9906C15.8625 39.1219 14.8781 38.1375 15.0094 36.975L15.975 28.275L36.45 7.80002C36.8062 7.44377 37.3875 7.44377 37.7438 7.80002ZM52.9312 5.65315L48.3562 1.07815C46.9312 -0.346851 44.6156 -0.346851 43.1813 1.07815L39.8625 4.3969C39.5063 4.75315 39.5063 5.3344 39.8625 5.69065L48.3188 14.1469C48.675 14.5031 49.2563 14.5031 49.6125 14.1469L52.9312 10.8281C54.3562 9.39377 54.3562 7.07815 52.9312 5.65315ZM36 32.4563V42H6V12H27.5437C27.8437 12 28.125 11.8781 28.3406 11.6719L32.0906 7.9219C32.8031 7.2094 32.2969 6.00002 31.2937 6.00002H4.5C2.01562 6.00002 0 8.01565 0 10.5V43.5C0 45.9844 2.01562 48 4.5 48H37.5C39.9844 48 42 45.9844 42 43.5V28.7063C42 27.7031 40.7906 27.2063 40.0781 27.9094L36.3281 31.6594C36.1219 31.875 36 32.1563 36 32.4563Z" fill="#12CBAE"/>
</svg>
