<svg width="30" height="30" viewBox="0 0 30 30" fill="none" xmlns="http://www.w3.org/2000/svg">
<mask id="mask0_2_21814" style="mask-type:alpha" maskUnits="userSpaceOnUse" x="2" y="2" width="26" height="26">
<path d="M10.1767 25.7611L22.6769 13.2608L16.7395 7.32343L4.23925 19.8237C4.06716 19.996 3.94492 20.2117 3.88548 20.4479L2.5 27.5004L9.55117 26.1149C9.78791 26.0557 10.0045 25.9333 10.1767 25.7611ZM26.7123 9.22544C27.2167 8.72094 27.5 8.03679 27.5 7.32343C27.5 6.61006 27.2167 5.92591 26.7123 5.42141L24.579 3.28804C24.0745 2.78369 23.3903 2.50037 22.6769 2.50037C21.9636 2.50037 21.2794 2.78369 20.7749 3.28804L18.6416 5.42141L24.579 11.3588L26.7123 9.22544Z" fill="#006FFD"/>
</mask>
<g mask="url(#mask0_2_21814)">
<rect y="0.000366211" width="30" height="30" fill="white"/>
</g>
</svg>
