<svg width="40" height="40" viewBox="0 0 40 40" fill="none" xmlns="http://www.w3.org/2000/svg">
<path d="M36.4828 5.5688C34.4654 3.52935 31.7401 2.40185 28.809 2.39357C25.792 2.38349 22.7686 3.52662 20.3462 5.55873C17.5911 3.13255 15.0989 1.94958 12.7521 1.94958C9.47459 1.94958 6.43373 3.24044 4.21037 5.5638C2.53928 7.2349 1.39428 9.42896 0.897949 11.9092C0.749355 12.6546 1.23232 13.3794 1.97779 13.5285C2.72232 13.6762 3.44795 13.1941 3.59709 12.4486C3.98607 10.5033 4.87092 8.79544 6.1774 7.48857C7.89756 5.6913 10.2329 4.70185 12.7522 4.70185C14.5774 4.70185 16.7884 5.93169 19.3004 8.33302C19.582 8.61607 19.9522 8.77248 20.3426 8.77294C20.343 8.77294 20.344 8.77294 20.3444 8.77294C20.7338 8.77294 21.104 8.61748 21.3861 8.33537C23.414 6.3074 26.1067 5.14591 28.7765 5.14591C28.7852 5.14591 28.7934 5.14591 28.8017 5.14591C31.0265 5.15185 33.0063 5.96794 34.5108 7.48857C36.276 9.33216 37.248 11.7469 37.248 14.289C37.248 16.8331 36.254 19.3079 34.5485 21.0519L20.3667 34.761L9.12131 23.8958C8.57498 23.3679 7.70389 23.3839 7.17545 23.9289C6.64748 24.4757 6.66264 25.3468 7.20897 25.8747L19.4108 37.6637C19.6772 37.9215 20.0222 38.0504 20.3667 38.0504C20.7112 38.0504 21.0562 37.9215 21.3231 37.6642L36.4883 23.0037C38.7199 20.7225 39.9998 17.5463 39.9998 14.289C39.9998 11.0344 38.7562 7.9431 36.4828 5.5688Z" fill="#27AE60"/>
<path d="M37.523 17.4542H26.422C26.0431 17.4542 25.6816 17.6097 25.422 17.885L21.2491 22.2974L16.4427 11.3946C16.2362 10.9263 15.7867 10.6111 15.2762 10.5767C14.7684 10.5442 14.278 10.7942 14.0105 11.2304L10.1931 17.4542H1.37617C0.616016 17.4542 0 18.0703 0 18.8304C0 19.5906 0.616016 20.2066 1.37617 20.2066H10.9629C11.4413 20.2066 11.8859 19.958 12.1359 19.5497L14.9836 14.9075L19.5666 25.3029C19.7524 25.725 20.1373 26.0254 20.5914 26.1039C20.6694 26.1171 20.7478 26.124 20.8258 26.124C21.201 26.124 21.5638 25.9708 21.8258 25.6937L27.0148 20.2065H37.523C38.2831 20.2065 38.8992 19.5904 38.8992 18.8303C38.8991 18.0703 38.283 17.4542 37.523 17.4542Z" fill="#27AE60"/>
</svg>
