<svg width="40" height="38" viewBox="0 0 40 38" fill="none" xmlns="http://www.w3.org/2000/svg">
<path d="M36.4828 4.5688C34.4654 2.52935 31.7401 1.40185 28.809 1.39357C25.792 1.38349 22.7686 2.52662 20.3462 4.55873C17.5911 2.13255 15.0989 0.949585 12.7521 0.949585C9.47459 0.949585 6.43373 2.24044 4.21037 4.5638C2.53928 6.2349 1.39428 8.42896 0.897949 10.9092C0.749355 11.6546 1.23232 12.3794 1.97779 12.5285C2.72232 12.6762 3.44795 12.1941 3.59709 11.4486C3.98607 9.50326 4.87092 7.79544 6.1774 6.48857C7.89756 4.6913 10.2329 3.70185 12.7522 3.70185C14.5774 3.70185 16.7884 4.93169 19.3004 7.33302C19.582 7.61607 19.9522 7.77248 20.3426 7.77294C20.343 7.77294 20.344 7.77294 20.3444 7.77294C20.7338 7.77294 21.104 7.61748 21.3861 7.33537C23.414 5.3074 26.1067 4.14591 28.7765 4.14591C28.7852 4.14591 28.7934 4.14591 28.8017 4.14591C31.0265 4.15185 33.0063 4.96794 34.5108 6.48857C36.276 8.33216 37.248 10.7469 37.248 13.289C37.248 15.8331 36.254 18.3079 34.5485 20.0519L20.3667 33.761L9.12131 22.8958C8.57498 22.3679 7.70389 22.3839 7.17545 22.9289C6.64748 23.4757 6.66264 24.3468 7.20897 24.8747L19.4108 36.6637C19.6772 36.9215 20.0222 37.0504 20.3667 37.0504C20.7112 37.0504 21.0562 36.9215 21.3231 36.6642L36.4883 22.0037C38.7199 19.7225 39.9998 16.5463 39.9998 13.289C39.9998 10.0344 38.7562 6.9431 36.4828 4.5688Z" fill="#27AE60"/>
</svg>
