<svg width="22" height="20" viewBox="0 0 22 20" fill="none" xmlns="http://www.w3.org/2000/svg">
<path d="M19.1999 0.6H10.5332C9.42863 0.6 8.5332 1.49543 8.5332 2.6V5.26667H11.1999H2.5332C1.39987 5.26667 0.533203 6.13333 0.533203 7.26667V14.6C0.533203 15.7333 1.39987 16.6 2.5332 16.6H3.19987V20L7.39987 16.6H9.86654C10.9711 16.6 11.8665 15.7046 11.8665 14.6V11.9333H19.1999C20.3332 11.9333 21.1999 11.0667 21.1999 9.93333V2.6C21.1999 1.46667 20.3332 0.6 19.1999 0.6ZM7.7332 13.8667L7.39987 12.8H5.3332L4.9332 13.8667H3.3332L5.5332 7.93333H7.1332L9.3332 13.8667H7.7332ZM17.8665 8.6V9.93333C16.9999 9.93333 16.0665 9.66667 15.2665 9.26667C14.4665 9.66667 13.5332 9.86667 12.5999 9.93333L12.5332 8.6C12.9999 8.6 13.4665 8.53333 13.9332 8.4C13.3332 7.8 12.9332 7.06667 12.7332 6.26667H14.1332C14.3332 6.86667 14.7332 7.33333 15.1999 7.73333C15.9332 7.13333 16.3999 6.26667 16.4665 5.26667H12.4665V3.93333H14.4665V2.6H15.7999V3.93333H17.9999L18.0665 4.6C18.1332 6 17.5999 7.4 16.5999 8.4C17.0665 8.53333 17.4665 8.6 17.8665 8.6Z" fill="white"/>
</svg>
