<svg width="28" height="30" viewBox="0 0 28 30" fill="none" xmlns="http://www.w3.org/2000/svg">
<path d="M24.769 23.9308C26.2051 22.2029 27.204 20.1545 27.681 17.959C28.1581 15.7634 28.0993 13.4853 27.5097 11.3172C26.9201 9.14916 25.817 7.15502 24.2937 5.50347C22.7704 3.85192 20.8717 2.59155 18.7583 1.82898C16.6449 1.06641 14.3789 0.824071 12.152 1.12247C9.9251 1.42087 7.80284 2.25123 5.96474 3.5433C4.12664 4.83537 2.62677 6.55114 1.59201 8.54546C0.557257 10.5398 0.0180569 12.754 0.0200249 15.0008C0.0207801 18.267 1.17177 21.4286 3.27102 23.9308L3.25102 23.9478C3.32102 24.0318 3.40103 24.1038 3.47303 24.1868C3.56302 24.2898 3.66002 24.3868 3.75302 24.4868C4.03302 24.7908 4.32102 25.0828 4.62302 25.3568C4.71502 25.4408 4.81002 25.5188 4.90302 25.5988C5.22302 25.8748 5.55202 26.1368 5.89302 26.3808C5.93703 26.4108 5.97703 26.4498 6.02103 26.4808V26.4688C8.36313 28.117 11.1571 29.0015 14.021 29.0015C16.8849 29.0015 19.6789 28.117 22.021 26.4688V26.4808C22.065 26.4498 22.104 26.4108 22.149 26.3808C22.489 26.1358 22.819 25.8748 23.139 25.5988C23.232 25.5188 23.327 25.4398 23.419 25.3568C23.721 25.0818 24.009 24.7908 24.289 24.4868C24.382 24.3868 24.478 24.2898 24.569 24.1868C24.64 24.1038 24.721 24.0318 24.791 23.9468L24.769 23.9308ZM14.02 7.00079C14.91 7.00079 15.7801 7.26471 16.5201 7.75918C17.2601 8.25364 17.8369 8.95645 18.1775 9.77872C18.5181 10.601 18.6072 11.5058 18.4336 12.3787C18.2599 13.2516 17.8313 14.0534 17.202 14.6828C16.5727 15.3121 15.7708 15.7407 14.8979 15.9143C14.025 16.088 13.1202 15.9988 12.2979 15.6582C11.4757 15.3177 10.7729 14.7409 10.2784 14.0009C9.78395 13.2608 9.52003 12.3908 9.52003 11.5008C9.52003 10.3073 9.99413 9.16273 10.838 8.31881C11.682 7.4749 12.8266 7.00079 14.02 7.00079ZM6.02702 23.9308C6.04437 22.6178 6.57797 21.3643 7.51238 20.4417C8.44679 19.5191 9.70688 19.0015 11.02 19.0008H17.02C18.3332 19.0015 19.5933 19.5191 20.5277 20.4417C21.4621 21.3643 21.9957 22.6178 22.013 23.9308C19.8199 25.9071 16.9723 27.0009 14.02 27.0009C11.0678 27.0009 8.22018 25.9071 6.02702 23.9308Z" fill="white"/>
</svg>
