<svg width="34" height="34" viewBox="0 0 34 34" fill="none" xmlns="http://www.w3.org/2000/svg">
<path fill-rule="evenodd" clip-rule="evenodd" d="M14.1667 4.25C8.68984 4.25 4.25 8.68984 4.25 14.1667C4.25 19.6435 8.68984 24.0833 14.1667 24.0833C16.3941 24.0833 18.4501 23.3489 20.1056 22.109L25.915 27.9185C26.4683 28.4717 27.3653 28.4717 27.9185 27.9185C28.4717 27.3653 28.4717 26.4683 27.9185 25.915L22.109 20.1056C23.3489 18.4501 24.0833 16.3941 24.0833 14.1667C24.0833 8.68984 19.6435 4.25 14.1667 4.25ZM7.08333 14.1667C7.08333 10.2546 10.2546 7.08333 14.1667 7.08333C18.0787 7.08333 21.25 10.2546 21.25 14.1667C21.25 18.0787 18.0787 21.25 14.1667 21.25C10.2546 21.25 7.08333 18.0787 7.08333 14.1667Z" fill="#64748B"/>
</svg>
