<svg width="41" height="40" viewBox="0 0 41 40" fill="none" xmlns="http://www.w3.org/2000/svg">
<g clip-path="url(#clip0_2_18717)">
<path d="M34.642 13.2401L27.4303 6.02837C26.9389 5.53735 26.1439 5.53696 25.6525 6.02751L7.07812 24.56L8.85508 26.3411L26.5401 8.69586L31.9749 14.1311L14.3301 31.8157L16.1108 33.5927L34.6432 15.0179C35.1334 14.5264 35.133 13.7306 34.642 13.2401Z" fill="#2F80ED"/>
<path d="M36.7812 5.65152L35.0202 3.89051C34.6101 3.48043 33.9737 3.40372 33.4781 3.70473L27.3984 7.39449L28.7037 9.54503L33.9393 6.36723L34.304 6.73238L31.1267 11.968L33.2773 13.2732L36.967 7.19355C37.2679 6.69808 37.1912 6.06113 36.7812 5.65152Z" fill="#2F80ED"/>
<path d="M18.4572 34.1633L6.5075 22.2136C6.01648 21.7222 5.21984 21.7222 4.72891 22.2136C4.2375 22.7046 4.2375 23.5013 4.72891 23.9922L16.6786 35.9419C16.9239 36.1876 17.2458 36.3104 17.5679 36.3104C17.8894 36.3104 18.2119 36.1875 18.4572 35.9419C18.9486 35.4509 18.9486 34.6543 18.4572 34.1633Z" fill="#2F80ED"/>
<path d="M18.1433 23.1788L6.4043 34.961L8.18614 36.7363L19.9251 24.9541L18.1433 23.1788Z" fill="#2F80ED"/>
<path d="M15.6716 20.707L3.93262 32.4892L5.71446 34.2645L17.4534 22.4823L15.6716 20.707Z" fill="#2F80ED"/>
<path d="M11.1201 37.8529L2.81822 29.5506C2.32681 29.0595 1.53017 29.0588 1.03916 29.5506C0.548145 30.0416 0.548145 30.8377 1.03916 31.3292L9.34102 39.6315C9.58672 39.8772 9.90875 40 10.2307 40C10.5523 40 10.8748 39.8771 11.12 39.6315C11.6111 39.1405 11.6111 38.3443 11.1201 37.8529Z" fill="#2F80ED"/>
<path d="M40.3026 0.368707C39.8112 -0.122699 39.0155 -0.122699 38.5241 0.368707L34.1215 4.7712C33.6301 5.26221 33.6301 6.05885 34.1215 6.54979C34.3672 6.79549 34.6887 6.9183 35.0108 6.9183C35.3328 6.9183 35.6548 6.79541 35.9001 6.54979L40.3026 2.1473C40.7941 1.65636 40.7941 0.859721 40.3026 0.368707Z" fill="#2F80ED"/>
<path d="M15.271 18.3131L13.4922 20.092L20.5779 27.1777L22.3568 25.3989L15.271 18.3131Z" fill="#2F80ED"/>
</g>
<defs>
<clipPath id="clip0_2_18717">
<rect width="40" height="40" fill="white" transform="translate(0.670898)"/>
</clipPath>
</defs>
</svg>
